<svg width="570" height="570" viewBox="0 0 570 570" fill="none" xmlns="http://www.w3.org/2000/svg">
<rect width="570" height="570" rx="8" fill="black"/>
<path d="M295.981 415.546V154.521C295.981 149.552 300.464 145.784 305.359 146.641L455.53 172.914C459.358 173.584 462.151 176.908 462.151 180.794V385.989C462.151 389.812 459.447 393.1 455.696 393.839L305.526 423.396C300.582 424.369 295.981 420.585 295.981 415.546Z" fill="white"/>
<line x1="270.141" y1="163.9" x2="270.141" y2="405.202" stroke="#DEDEDE" stroke-width="12" stroke-linecap="round"/>
<line x1="242.17" y1="176.972" x2="242.17" y2="392.13" stroke="#BABABA" stroke-width="10" stroke-linecap="round"/>
<line x1="216.545" y1="187.699" x2="216.545" y2="381.403" stroke="#9E9E9E" stroke-width="8" stroke-linecap="round"/>
<line x1="194.935" y1="195.408" x2="194.936" y2="373.694" stroke="#858585" stroke-width="7" stroke-linecap="round"/>
<line x1="174.499" y1="204.289" x2="174.499" y2="364.812" stroke="#6D6D6D" stroke-width="6" stroke-linecap="round"/>
<line x1="156.409" y1="214.344" x2="156.409" y2="357.103" stroke="#5A5A5A" stroke-width="5" stroke-linecap="round"/>
<line x1="139.491" y1="219.707" x2="139.491" y2="351.74" stroke="#474747" stroke-width="4" stroke-linecap="round"/>
<line x1="122.572" y1="226.243" x2="122.572" y2="345.204" stroke="#333333" stroke-width="3" stroke-linecap="round"/>
<line x1="108.5" y1="235.625" x2="108.5" y2="340.513" stroke="#222222" stroke-width="3" stroke-linecap="round"/>
</svg>
